# xmcd
#
# Track frame offsets:
#	150
#	9135
#	18713
#	27494
#	37244
#	47641
#	57852
#	64099
#	72919
#	78623
#	86556
#	98916
#	112687
#	124933
#	138665
#	150750
#	167786
#	179748
#
# Disc length: 2583 seconds
#
# Revision: 1
# Processed by: cddbd v1.5.2PL0 Copyright (c) Steve Scherf et al.
# Submitted via: audiograbber 1.83.01
#
DISCID=f00a1512
DTITLE=Roy Orbison - The Solid Gold Collection CD2
DYEAR=1900
DGENRE=
TTITLE0=Claudette
TTITLE1=You´re Gonna Cry
TTITLE2=Mean Little Mama
TTITLE3=This Kind Of Love
TTITLE4=Problem Child
TTITLE5=I Was A Fool ft. Ken Cook
TTITLE6=Lovestruck
TTITLE7=I Give Up
TTITLE8=One More Time
TTITLE9=The Clown
TTITLE10=Only The Loney (Live)
TTITLE11=Blue Angel (Live)
TTITLE12=Cryin (Live)
TTITLE13=In Dreams (Live)
TTITLE14=It´s Over (Live)
TTITLE15=Oh, Pretty Woman (Live)
TTITLE16=Dream Baby (How Long Must I Dream) (Live)
TTITLE17=To Soon To Know (Live)
EXTD=
EXTT0=
EXTT1=
EXTT2=
EXTT3=
EXTT4=
EXTT5=
EXTT6=
EXTT7=
EXTT8=
EXTT9=
EXTT10=
EXTT11=
EXTT12=
EXTT13=
EXTT14=
EXTT15=
EXTT16=
EXTT17=
PLAYORDER=
